{
    "asset" : {
        "generator" : "Khronos glTF Blender I/O v3.4.50",
        "version" : "2.0"
    },
    "scene" : 0,
    "scenes" : [
        {
            "name" : "Scene",
            "nodes" : [
                0
            ]
        }
    ],
    "nodes" : [
        {
            "mesh" : 0,
            "name" : "Cube",
            "rotation" : [
                0,
                -0.9993641376495361,
                0,
                0.03565584123134613
            ],
            "scale" : [
                4.501765251159668,
                1.1336942911148071,
                2.5448989868164062
            ],
            "translation" : [
                -1.660252332687378,
                1.1318697929382324,
                0.024180447682738304
            ]
        }
    ],
    "materials" : [
        {
            "doubleSided" : true,
            "name" : "BaseMaterial",
            "pbrMetallicRoughness" : {
                "baseColorTexture" : {
                    "index" : 0
                },
                "metallicFactor" : 0,
                "roughnessFactor" : 0.5
            }
        }
    ],
    "meshes" : [
        {
            "name" : "Cube.002",
            "primitives" : [
                {
                    "attributes" : {
                        "POSITION" : 0,
                        "TEXCOORD_0" : 1,
                        "NORMAL" : 2
                    },
                    "indices" : 3,
                    "material" : 0
                }
            ]
        }
    ],
    "textures" : [
        {
            "sampler" : 0,
            "source" : 0
        }
    ],
    "images" : [
        {
            "mimeType" : "image/jpeg",
            "name" : "cottage_diffuse",
            "uri" : "cottage_diffuse.jpg"
        }
    ],
    "accessors" : [
        {
            "bufferView" : 0,
            "componentType" : 5126,
            "count" : 1344,
            "max" : [
                1.2217717170715332,
                3.084787368774414,
                1.1487441062927246
            ],
            "min" : [
                -1.148742437362671,
                -1.0000001192092896,
                -1.165095329284668
            ],
            "type" : "VEC3"
        },
        {
            "bufferView" : 1,
            "componentType" : 5126,
            "count" : 1344,
            "type" : "VEC2"
        },
        {
            "bufferView" : 2,
            "componentType" : 5126,
            "count" : 1344,
            "type" : "VEC3"
        },
        {
            "bufferView" : 3,
            "componentType" : 5123,
            "count" : 1476,
            "type" : "SCALAR"
        }
    ],
    "bufferViews" : [
        {
            "buffer" : 0,
            "byteLength" : 16128,
            "byteOffset" : 0,
            "target" : 34962
        },
        {
            "buffer" : 0,
            "byteLength" : 10752,
            "byteOffset" : 16128,
            "target" : 34962
        },
        {
            "buffer" : 0,
            "byteLength" : 16128,
            "byteOffset" : 26880,
            "target" : 34962
        },
        {
            "buffer" : 0,
            "byteLength" : 2952,
            "byteOffset" : 43008,
            "target" : 34963
        }
    ],
    "samplers" : [
        {
            "magFilter" : 9729,
            "minFilter" : 9987
        }
    ],
    "buffers" : [
        {
            "byteLength" : 45960,
            "uri" : "cottage_blender.bin"
        }
    ]
}
